<svg xmlns="http://www.w3.org/2000/svg" width="407.74" height="179.8" viewBox="0 0 409.74 181.8">
 <g transform="matrix(1.3333 0 0 -1.3333 -203.87 617.54)">
  <g transform="matrix(.5 0 0 .5 153.73 197.03)">
   <path d="m610.36 260.88c-33.913 45.673-93.104 101.46-163.62 132.78l14.402-33.183c-59.963 30.2-126.62 51.879-202.18 51.535l16.103-17.435c-139.57-5.4667-221.46-74.678-275.07-133.7 1.2542 79.916 58.515 152.09 133.95 196.15l-15.527 14.413c56.143 38.858 134.89 49.761 201.35 42.085l-9.4502 17.05c220.16-16.36 313.41-180.67 300.04-269.69" fill="#fff"/>
   <path d="m257.94 401.33-16.915 18.315c64.104 2.1317 128.91-7.5204 204.3-42.954l-13.888 32.002c56.757-21.989 119.64-63.034 172.37-126.7-4.6432 96.4-102 221.32-279.07 239.18l9.846-17.762c-71.569 12.159-151.98-0.4944-203.16-33.126l16.004-14.853c-77.032-41.312-127.63-107.03-138.5-173.44 63.58 66.408 146.24 112.27 249.01 119.34" fill="#0080c6"/>
   <path d="m576.17 333.75c-30.006 80.766-120.25 150.4-221.56 167.07l11.9-21.207c-61.019 18.875-149.69 17.732-207.98-12.682l16.72-15.519c-53.424-22.894-109.79-71.922-132.11-116.97 36.591 33.007 116.2 71.211 181.51 79.33l-16.228 17.572c62.767 12.442 146.42 0.1272 206.06-24.089l-11.569 26.659c43.924-9.0035 125.55-48.249 173.25-100.16" fill="#ffc20e"/>
  </g>
 </g>
</svg>
