<?xml version="1.0" encoding="utf-8"?>
<!-- Generator: Adobe Illustrator 16.0.3, SVG Export Plug-In . SVG Version: 6.00 Build 0)  -->
<!DOCTYPE svg PUBLIC "-//W3C//DTD SVG 1.1//EN" "http://www.w3.org/Graphics/SVG/1.1/DTD/svg11.dtd">
<svg version="1.1" id="team_logos" xmlns="http://www.w3.org/2000/svg" xmlns:xlink="http://www.w3.org/1999/xlink" x="0px" y="0px"
	 width="200px" height="200px" viewBox="0 0 200 200" enable-background="new 0 0 200 200" xml:space="preserve">
<g>
	<path fill="#005778" d="M167.038,64.07c-1.39,0.335-4.808,0.44-6.267,0.44s-3.521-0.217-6.687,1.167
		c-2.271,0.992-3.799,2.979-4.481,4.024c0.217-0.305,0.42-0.549,0.59-0.678c0,0,2.309-2.662,7.022-2.315
		c-0.155,0.24-0.29,0.578-0.139,0.908c0.002,0.005,0.005,0.01,0.007,0.015c0.021,0.044,0.046,0.088,0.079,0.132l0,0
		c0.008,0.011,0.014,0.022,0.022,0.033c0,0,1.688-0.543,2.885-0.904c2.593-0.645,4.201-1.082,5.949-1.799
		c2.392-0.979,3.154-1.414,3.076-1.599C169.018,63.31,168.427,63.735,167.038,64.07z"/>
	<path fill="#FFFFFF" d="M150.193,69.023c-0.17,0.129-0.375,0.373-0.592,0.678c-0.85,1.197-1.896,3.353-1.896,3.353
		c1.571-2.329,6.526-4.294,9.456-5.292c-0.031-0.044-0.057-0.088-0.078-0.132c-0.002-0.005-0.005-0.01-0.007-0.015
		c-0.151-0.331-0.019-0.668,0.139-0.908C152.501,66.362,150.193,69.023,150.193,69.023z"/>
	<path fill="#F58220" d="M154.922,124.002c-1.002,2.033,1.604,8.316,3.985,10.188c-1.743-0.521-10.851-3.111-12.312,0.256
		c-1.605,3.705,7.295,17.297,8.305,19.837c-4.104-4.072-15.342-13.199-16.936-12.155c-1.593,1.044-1.199,6.131-0.785,8.719
		c-1.543-1.88-4.193-4.895-6.482-3.992c-2.289,0.901-2.008,9.636-2.155,13.356c-1.888-4.377-4.972-13.19-7.824-12.87
		c-2.854,0.322-6.055,6.319-6.663,8.611c-0.436-2.294-2.303-7.34-5.127-7.34s-9.391,13.353-11.375,17.69
		c-0.008-3.356,0.796-19.737-0.984-20.549c-1.78-0.812-7.788,2.922-9.077,4.621c0.478-2.151,0.884-9.425-0.717-10.303
		c-1.604-0.882-6.171-1.158-14.43,6.479c1.371-2.93,3.628-6.118,4.177-9.209c3.42-0.176,6.806-0.563,10.222-1.231
		c7.452,5.394,16.614,8.576,26.516,8.576c25.011,0,45.285-20.273,45.285-45.285c0-1.959-0.126-3.89-0.366-5.78
		c1.678-1.58,3.286-3.109,4.783-4.536c-0.342,0.82-0.531,1.81-0.5,3.028c0.098,3.818,9.989,4.633,15.245,5.058
		c-5.87,0.796-16.128,5.045-14.181,7.326c1.949,2.278,7.633,5.412,8.439,5.808c-2.709,0-11.611,0.92-12.605,3.444
		c-0.996,2.522,12.883,10.983,17.965,12.972C171.001,124.938,155.924,121.969,154.922,124.002z"/>
	<path fill="#F58220" d="M147.259,58.918c-2.961,0.58-6.018,1.432-9.174,2.608c-7.131-4.681-15.66-7.408-24.826-7.408
		c-25.008,0-45.282,20.274-45.282,45.282c0,6.021,1.176,11.765,3.31,17.018c-2.577,1.909-5.045,3.423-7.574,4.591
		c1.849-2.202,3.454-6.435,1.366-7.563c-1.426-0.772-8.062-1.078-8.062-1.078s7.471-5.021,7.297-8.652
		c-0.174-3.629-12.088-5.488-16.798-6.532c4.156-0.875,17.616-3.916,18.193-6.625c0.58-2.706-4.206-4.628-6.218-5.572
		c2.255,0.029,7.969,0.986,8.739-1.804c0.881-3.199-13.191-11.53-16.397-12.685c0.717,0.169,14.119,3.296,19.019,2.236
		c3.647-0.791-0.604-5.699-1.306-6.279c1.076,0.524,7.221,1.791,8.979-1.126c1.759-2.917-4.209-14.533-7.55-19.457
		c2.967,2.959,16.516,12.598,18.536,10.957c2.023-1.64,0.478-6.938-0.606-8.687c2.184,2.044,4.333,4.776,7.107,4.718
		c1.39-0.029,3.138-4.623,3.425-15.005c1.879,5.818,6.37,13.724,9.665,13.244c3.299-0.477,4.426-5.375,4.881-7.46
		c0.381,2.239,2.113,7.993,4.312,8.205c2.7,0.421,7.866-11.596,9.747-17.025c0.285,2.682-1.683,16.456,1.229,17.6
		c2.908,1.147,7.719-4.652,10.449-7.901c-1.656,3.144-4.893,10.746-2.965,12.566s8.592-0.087,11.189-2.229
		C147.217,56.447,147.061,57.721,147.259,58.918z"/>
	<path fill="#008E97" d="M182.802,58.709c-3.452,0.343-10.372,2.835-10.372,2.835c-12.637-3.281-27.632-3.65-46.027,7.545
		c-3.435,2.091-6.572,4.253-9.475,6.458s-5.568,4.449-8.055,6.701c-1.076,0.971-2.456,2.215-3.637,3.41
		c-5.97,1.991-8.621,0.129-16.825,1.208c-6.493,0.854-9.014,3.07-10.443,4.81c-0.185,0.501-0.167,0.942,0.171,1.21
		c0.775,0.623,1.973,0.312,4.246,0.143c2.271-0.166,5.712-0.111,7.983,1.308c1.463,0.91,2.128,3.109,2.371,4.325
		c-1.701,1.804-3.37,3.552-5.055,5.216c-10.364,10.254-17.339,16.367-25.146,19.42c-16.936,6.63-26.477-1.157-30.298-3.455
		l-0.003,0.005c-4.636-2.975-10.786-3.957-14.085-4.578c-3.299-0.619-5.103-2.215-5.807-2.812c-0.704-0.598-1.245-1.605-2.046-1.379
		c-0.206,0.058-0.385,0.121-0.514,0.242c0.129-0.119,0.309-0.182,0.514-0.24c0.124,1.432,4.929,13.378,20.19,15.548
		c4.362,0.62,5.749,0.425,6.563,0.364c-2.565-2.256-4.681-5.401-4.86-5.586c0.583,0.507,1.166,0.988,1.749,1.451
		c4.554,4.861,9.731,6.869,14.08,7.594c0.285,0.09,4.576,0.275,4.576,0.275c5.005-0.106,11.725-1.578,17.961-3.388
		c18.31-5.313,35.973-21.182,35.973-21.182s-0.981,4.276-1.363,5.792c-0.25,1.197-1.15,5.205-2.84,9.402
		c0,0.002-0.506,1.266-1.242,2.812c-1.087,2.289-2.613,5.171-2.613,6.376c0,0.058,0.002,0.11,0.01,0.158
		c0,0,0.013,0.132,0.066,0.301c1.376-0.731,3.249-1.997,5.377-3.792c3.333-2.78,7.559-7.01,12.447-13.041
		c10.986-13.553,12.732-22.83,20.457-30.048c3.27-3.059,11.867-7.785,16.268-9.32c0.051-0.026,0.084-0.042,0.099-0.047
		c0.003,0,0.003-0.003,0.005,0c0.002-0.003,0.002-0.003,0.002-0.003c7.438-4.246,14.718-7.529,15.9-8.006
		c4.351-1.751,19.653-6.833,21.266-4.307h0.002C189.695,59.527,186.207,58.369,182.802,58.709z M166.021,65.094
		c-1.75,0.717-3.356,1.155-5.951,1.798c-1.195,0.361-2.885,0.905-2.885,0.905c-0.008-0.011-0.014-0.024-0.021-0.035
		c-2.928,0.997-7.877,2.961-9.454,5.288c0.063-0.129,1.067-2.189,1.894-3.349c0.683-1.047,2.209-3.033,4.479-4.024
		c3.167-1.382,5.229-1.166,6.688-1.166c1.457,0,4.875-0.104,6.266-0.44c1.389-0.335,1.98-0.762,2.059-0.575
		C169.176,63.681,168.411,64.113,166.021,65.094z"/>
	<path fill="#FFFFFF" d="M105.167,111.951c-0.25,1.197-1.149,5.206-2.84,9.402c-5.983,3.174-15.548,7.244-24.201,9.271
		c-17.039,3.995-27.951,0.53-29.821-0.082l-0.267-0.084c0.417,0.09,4.557,0.27,4.557,0.27c0.894,0.019,12.526,0.476,25.298-4.316
		C88.335,122.598,98.601,116.371,105.167,111.951z"/>
	<path fill="#005778" d="M106.531,106.159c0,0-0.981,4.276-1.363,5.792c-6.566,4.42-16.833,10.646-27.273,14.459
		c-12.772,4.792-24.404,4.335-25.298,4.316c5.005-0.105,11.725-1.578,17.961-3.387C88.867,122.027,106.531,106.159,106.531,106.159z
		"/>
	<path fill="#008E97" d="M149.967,98.678c-1.3,4.01-3.296,9.489-5.74,14.125c-2.906,5.51-6.735,9.314-8.752,10.775
		c-0.336-0.203-0.461-0.63-0.473-1.07c-0.016-0.785,1.709-4.836,2.387-13.361c2.178-1.639,4.135-3.197,5.864-4.635
		C145.452,102.682,147.718,100.701,149.967,98.678z"/>
	<path fill="#005778" d="M49.294,117.775c-0.002,0.541-0.077,1.093-0.219,1.654c-0.261,0.959-0.768,2.119-1.585,3.316
		c-0.496,0.73-1.313,1.654-1.324,1.664c-0.135,0.008-0.765,0.033-1.295-0.02c-0.533-0.052-1.1-0.146-1.334-0.191v-0.002
		c-0.145-0.198,6.875-4.955,4.974-7.271C48.617,116.911,49.263,116.766,49.294,117.775z"/>
	<path fill="#005778" d="M189.469,65.481c-0.002,0-0.002,0.003-0.002,0.003s-0.281,0.417-1.227,1.242
		c-0.941,0.825-2.545,2.054-5.186,3.679c-2.525,1.553-9.566,6.316-14.974,11.312c-0.2,0.185-14.655,13.826-15.017,14.161
		c-0.039,0.127-1.914,7.11-6.392,16.191c-3.138,6.365-7.821,10.341-9.483,11.25c-0.104,0.056-1.07,0.668-1.717,0.256
		c2.019-1.461,5.846-5.266,8.752-10.775c2.445-4.636,4.441-10.115,5.741-14.125c-2.25,2.023-4.515,4.004-6.714,5.833
		c-1.73,1.437-3.688,2.996-5.865,4.634c0,0.008-4.683,3.444-7.33,5.207c0,0-0.002,0-0.002,0.002
		c-1.482,0.983-8.272,5.215-12.393,7.463c-3.497,1.908-10.82,5.379-10.842,5.39c-0.002,0-0.002,0-0.002,0
		c-3.812,3.22-6.8,4.723-7.6,4.522c-0.491-0.121-0.66-0.699-0.67-0.728c1.376-0.731,3.249-1.997,5.377-3.792
		c3.333-2.78,7.559-7.01,12.447-13.041c10.986-13.553,12.732-22.83,20.457-30.048c3.27-3.059,11.867-7.785,16.268-9.32
		c0.051-0.026,0.086-0.042,0.098-0.047c-5.036,2.875-10.141,6.189-13.473,9.367c-6.453,6.031-8.66,13.075-15.053,22.698l-0.161,0.25
		c21.538-16.334,38.181-35.25,55.388-41.295c0.549-0.192,1.068-0.372,1.566-0.541c0.021-0.008,0.042-0.013,0.061-0.021
		c5.857-1.98,8.227-2.289,8.397-1.187C189.996,64.506,189.611,65.221,189.469,65.481z"/>
	<path fill="#008E97" d="M43.538,124.198v0.002c-4.343-0.836-9.428-3.792-11.005-4.689c0.541-0.526,1.873-1.477,4.396-1.321
		c3.465,0.213,7.294,0.496,9.088-0.041c1.54-0.461,1.833-1.135,2.492-1.222h0.002C50.413,119.243,43.393,124,43.538,124.198z"/>
	<path fill="#005778" d="M88.412,86.865c8.203-1.078,10.854,0.783,16.824-1.208c1.181-1.194,2.56-2.438,3.636-3.408
		c-1.69,0.542-2.996,0.865-4.228,1.083c-2.795,0.552-4.825,0.408-10.624,1.169c-9.112,1.199-13.374,4.055-14.568,5.159
		c-0.36,0.333-0.637,0.621-1.016,1.149c-0.261,0.363-0.444,0.792-0.472,0.87C79.396,89.938,81.916,87.72,88.412,86.865z"/>
	<path fill="#005778" d="M101.085,124.166c-1.086,2.289-2.613,5.171-2.613,6.376c0,0.058,0.002,0.11,0.01,0.158
		c-13.893,5.427-25.222,5.171-25.264,5.174c-19.104,0.905-34.135-6.872-34.135-6.872s0-0.002-0.002-0.002
		c-0.04,0-0.145,0.002-0.306,0.002c-1.793,0-10.665-0.137-16.49-2.843c-6.372-2.956-10.037-7.591-11.633-11.073
		c-1.187-2.595-1.245-3.423-0.867-3.766c0.031-0.029,0.068-0.055,0.105-0.079c0,0,0.002,0,0.002-0.002
		c0.113-0.068,0.253-0.116,0.406-0.158c0.124,1.433,4.929,13.378,20.19,15.548c4.362,0.62,5.749,0.426,6.563,0.364
		c-2.565-2.255-4.681-5.401-4.86-5.586c0.583,0.507,1.166,0.989,1.749,1.45c4.554,4.863,9.731,6.869,14.08,7.595
		c0.005,0.003,0.011,0.003,0.019,0.005h0.003l0.019,0.006l0.245,0.079c1.87,0.612,12.782,4.077,29.821,0.082
		c8.652-2.028,18.217-6.097,24.201-9.272C102.327,121.354,101.82,122.618,101.085,124.166z"/>
	<path fill="#FFFFFF" d="M191.994,62.894c-0.03-0.687-0.161-1.096-0.161-1.096l-0.002-0.003c-0.836-2.92-3.817-4.725-7.88-4.725
		c-0.432,0-0.871,0.022-1.305,0.065c-3.112,0.309-8.646,2.183-10.289,2.757c-5.158-1.304-9.993-1.938-14.767-1.938
		c-2.466,0-4.92,0.175-7.366,0.517l0.002-0.001l-1.009,0.136c0,0-0.393-1.277,0.634-4.261c0.533-1.547,1.264-2.969,1.264-2.969
		s-11.233,5.838-12.635,3.975c-1.403-1.863,4.877-16.68,4.877-16.68s-10.828,12.032-12.955,11.498
		c-0.834-0.209-0.914-4.567-0.955-9.256c-0.057-6.35,0.164-13.614,0.164-13.614s-8.916,22.168-11.092,22.053
		c-1.887-0.1-4.631-11.933-4.631-11.933s-1.723,10.197-4.816,11.444c-3.094,1.247-11.056-17.824-11.056-17.824
		s-0.368,19.087-2.582,19.515c-2.214,0.428-9.264-6.705-9.264-6.705s3.305,9.507,2.186,10.76c-0.668,0.747-7.448-3.445-14.502-8.505
		c-4.075-2.923-7.483-5.373-7.483-5.373s3.976,6.604,7.137,13.506c2.176,4.752,3.497,9.312,2.928,10.2
		c-1.396,2.177-11.866-0.926-11.866-0.926s5.951,5.733,5.567,7.21c-0.187,0.717-6.104,0.199-12.119-0.623
		c-6.38-0.873-12.871-2.076-12.871-2.076s21.247,12.353,20.58,14.577c-0.528,1.759-13.75,0.318-13.75,0.318
		s11.497,5.252,11.45,6.988c-0.046,1.735-22.503,7.418-22.503,7.418s20.339,4.254,20.728,6.522c0.389,2.269-8.021,9.547-8.021,9.547
		s9.792,0.885,10.278,2.166c0.486,1.282-2.379,6.348-4.867,7.149c-3.074,0.992-5.872,1.624-9.28,1.624
		c-0.491,0-0.97-0.014-1.438-0.04c0.168-0.218,0.335-0.442,0.48-0.657c0.838-1.228,1.462-2.54,1.803-3.791l0.003-0.013l0.003-0.013
		c0.174-0.688,0.264-1.373,0.268-2.035v-0.029l-0.001-0.027c-0.023-0.754-0.269-1.396-0.713-1.834
		c-0.833-0.726-1.609-0.639-2.167-0.392l-1.932,0.947c-0.144,0.062-0.306,0.125-0.502,0.184c-0.37,0.111-1.15,0.243-2.766,0.243
		c-1.532,0-3.355-0.114-5.118-0.225c0,0-1.083-0.061-1.292-0.061c-2.104,0-3.507,0.67-4.354,1.282l-0.46-0.242
		c-4.302-2.285-9.309-3.209-12.435-3.786c-0.243-0.045-0.475-0.086-0.693-0.129c-3.453-0.677-5.343-2.727-5.497-2.893
		c-0.292-0.317-0.673-0.728-1.17-1.014c0,0-0.899-0.562-2.23-0.15c-0.869,0.305-1.236,0.982-1.236,0.982
		c-0.745,1.237-0.034,3.055,0.903,5.103c1.065,2.327,4.407,8.14,12.405,11.851c2.618,1.217,6.063,2.082,10.238,2.572
		c3.143,0.369,5.797,0.416,6.854,0.418c1.018,0.496,4.152,1.943,8.812,3.4c5.115,1.599,13.109,3.5,22.269,3.543
		c0,0,3.25,0.041,5.005-0.071c0.177,0.731-1.093,3.349-2.619,6.414c-1.807,3.633-4.127,7.932-4.127,7.932s4.19-3.702,8.096-6.448
		c3.931-2.765,8.334-4.984,9.375-3.705c1.967,2.418-0.132,12.396-0.132,12.396s7.941-7.026,9.782-6.075
		c0.843,0.437,0.928,5.688,0.931,11.217c0.004,6.555-0.165,13.517-0.165,13.517s10.938-22.134,13.214-21.5
		c2.275,0.632,4.766,10.723,4.766,10.723s4.156-12.294,6.695-11.995c1.016-0.125,3.195,3.862,5.135,7.938
		c2.125,4.467,3.945,8.834,3.945,8.834s0.044-4.565,0.361-9.229c0.289-4.215,0.823-8.33,1.75-8.558
		c1.951-0.479,7.612,7.106,7.612,7.106s-2.002-10.574-0.435-11.472c1.568-0.896,20.41,15.394,20.41,15.394
		s-12.364-22.909-10.86-24.658s14.71,1.818,14.71,1.818s-1.969-2.322-3.65-4.947c-1.761-2.745-3.227-5.812-2.537-6.551
		c0.625-0.67,7.51,0.027,14.623,1.408c8.202,1.59,13.537,2.725,13.537,2.725s-4.83-2.614-11.955-6.9
		c-6.168-3.711-11.595-7.889-11.363-8.566c0.5-1.459,15.23-2.86,15.23-2.86s-2.473-1.455-5.129-3.079
		c-2.885-1.764-5.964-3.959-5.964-4.764c0-0.702,3.694-2.443,8.565-3.941c5.842-1.796,11.244-3,11.244-3s-20.082-1.612-21.337-4.476
		c-0.856-1.956,0.718-4.505,1.87-6.153c1.153-1.647,2.803-3.142,2.803-3.142c5.487-5.066,12.471-9.731,14.701-11.103
		c0.158-0.097,0.309-0.192,0.463-0.288c0,0,5.15-3.804,5.68-4.248c0.461-0.387,1.641-1.623,1.906-3.196
		C191.932,64.021,192.023,63.587,191.994,62.894z M65.078,113.445c-1.426-0.772-8.062-1.078-8.062-1.078s7.471-5.021,7.297-8.652
		c-0.174-3.629-12.088-5.488-16.798-6.532c4.156-0.875,17.616-3.916,18.193-6.625c0.58-2.706-4.206-4.628-6.218-5.572
		c2.255,0.029,7.969,0.986,8.739-1.804c0.881-3.199-13.191-11.53-16.397-12.685c0.717,0.169,14.119,3.296,19.019,2.236
		c3.647-0.791-0.604-5.699-1.306-6.279c1.076,0.524,7.221,1.791,8.979-1.126c1.759-2.917-4.209-14.533-7.55-19.457
		C73.941,48.83,87.49,58.469,89.51,56.828c2.023-1.64,0.478-6.938-0.606-8.687c2.184,2.044,4.333,4.776,7.107,4.718
		c1.39-0.029,3.138-4.623,3.425-15.005c1.88,5.818,6.369,13.724,9.666,13.244c3.299-0.477,4.424-5.375,4.881-7.46
		c0.379,2.239,2.111,7.993,4.312,8.205c2.7,0.421,7.866-11.596,9.747-17.025c0.285,2.682-1.682,16.456,1.229,17.6
		c2.91,1.147,7.719-4.652,10.449-7.901c-1.656,3.144-4.892,10.746-2.964,12.566c1.929,1.82,8.593-0.087,11.188-2.229
		c-0.728,1.593-0.883,2.867-0.686,4.064c-2.961,0.58-6.018,1.432-9.174,2.608c-7.131-4.681-15.66-7.408-24.826-7.408
		c-25.008,0-45.282,20.274-45.282,45.282c0,6.021,1.176,11.765,3.31,17.018c-2.577,1.909-5.045,3.423-7.574,4.591
		C65.561,118.809,67.166,114.575,65.078,113.445z M36.929,118.189c3.465,0.213,7.294,0.496,9.088-0.041
		c1.54-0.461,1.833-1.135,2.492-1.222h0.002c0.105-0.016,0.751-0.161,0.783,0.851c-0.002,0.541-0.077,1.092-0.219,1.652
		c-0.261,0.961-0.768,2.12-1.585,3.317c-0.496,0.729-1.313,1.653-1.324,1.664c-0.135,0.008-0.765,0.034-1.295-0.019
		c-0.533-0.053-1.1-0.147-1.334-0.192c-4.343-0.836-9.428-3.792-11.005-4.689C33.074,118.984,34.405,118.035,36.929,118.189z
		 M177.704,97.169c-5.87,0.796-16.128,5.045-14.181,7.326c1.949,2.278,7.633,5.412,8.439,5.807c-2.709,0-11.611,0.921-12.605,3.445
		c-0.996,2.522,12.883,10.983,17.965,12.972c-6.321-1.779-21.398-4.75-22.4-2.716s1.604,8.317,3.985,10.188
		c-1.743-0.522-10.851-3.112-12.312,0.254c-1.605,3.707,7.295,17.298,8.305,19.838c-4.104-4.072-15.342-13.199-16.936-12.155
		c-1.593,1.044-1.199,6.131-0.785,8.72c-1.543-1.881-4.193-4.896-6.482-3.994c-2.289,0.902-2.008,9.637-2.155,13.357
		c-1.888-4.377-4.972-13.191-7.824-12.87c-2.854,0.322-6.055,6.319-6.663,8.611c-0.436-2.294-2.303-7.339-5.127-7.339
		s-9.391,13.352-11.375,17.689c-0.008-3.357,0.796-19.736-0.984-20.549c-1.78-0.812-7.788,2.922-9.077,4.621
		c0.478-2.152,0.884-9.425-0.717-10.303c-1.604-0.881-6.171-1.158-14.43,6.479c1.371-2.93,3.628-6.117,4.177-9.209
		c3.42-0.176,6.806-0.564,10.222-1.23c7.452,5.393,16.614,8.576,26.516,8.576c25.011,0,45.285-20.274,45.285-45.286
		c0-1.959-0.126-3.89-0.366-5.78c1.678-1.58,3.286-3.109,4.783-4.536c-0.342,0.82-0.531,1.81-0.5,3.028
		C162.557,95.93,172.449,96.745,177.704,97.169z M190.368,62.438c-1.611-2.526-16.915,2.555-21.267,4.307
		c-1.182,0.477-8.463,3.76-15.908,8.009c-5.036,2.875-10.142,6.189-13.473,9.367c-6.453,6.031-8.66,13.075-15.053,22.697
		l-0.161,0.25c21.538-16.333,38.181-35.25,55.388-41.294c0.549-0.192,1.068-0.372,1.566-0.541c0.021-0.008,0.042-0.013,0.061-0.021
		c5.857-1.98,8.227-2.289,8.397-1.187c0.076,0.48-0.31,1.195-0.454,1.458c0,0-0.281,0.417-1.227,1.242
		c-0.941,0.825-2.545,2.054-5.186,3.679c-2.525,1.553-9.566,6.316-14.974,11.313c-0.2,0.185-14.655,13.826-15.017,14.161
		c-0.039,0.127-1.914,7.11-6.392,16.192c-3.138,6.363-7.821,10.34-9.483,11.25c-0.104,0.055-1.07,0.666-1.717,0.255
		c-0.335-0.203-0.461-0.63-0.472-1.07c-0.017-0.786,1.709-4.836,2.386-13.362c0,0.008-4.683,3.444-7.333,5.209
		c-1.481,0.983-8.272,5.215-12.392,7.463c-3.497,1.908-10.82,5.379-10.844,5.39c-3.813,3.22-6.801,4.723-7.601,4.522
		c-0.491-0.121-0.66-0.699-0.67-0.728c-0.053-0.168-0.066-0.301-0.066-0.301c-13.893,5.427-25.222,5.171-25.264,5.174
		c-19.104,0.905-34.135-6.872-34.138-6.875c-0.04,0-0.145,0.002-0.306,0.002c-1.793,0-10.665-0.138-16.49-2.843
		c-6.372-2.956-10.037-7.59-11.633-11.073c-1.187-2.595-1.245-3.423-0.867-3.767c0.129-0.121,0.309-0.185,0.514-0.241
		c0.801-0.228,1.342,0.78,2.046,1.379c0.704,0.599,2.508,2.194,5.807,2.813s9.449,1.604,14.088,4.572
		c3.821,2.297,13.362,10.084,30.298,3.455c7.806-3.054,14.781-9.167,25.145-19.42c1.685-1.664,3.354-3.412,5.055-5.216
		c-0.243-1.216-0.907-3.415-2.371-4.325c-2.271-1.419-5.712-1.474-7.982-1.308c-2.274,0.168-3.471,0.48-4.246-0.143
		c-0.278-0.223-0.327-0.574-0.257-0.904c0.072-0.338,0.224-0.655,0.407-0.946c0.047-0.076,0.095-0.154,0.148-0.227
		c0.379-0.528,0.655-0.816,1.016-1.149c1.194-1.104,5.456-3.959,14.568-5.159c5.799-0.762,7.828-0.617,10.625-1.169
		c1.23-0.218,2.537-0.541,4.228-1.084c2.487-2.252,5.153-4.496,8.054-6.701c2.903-2.205,6.042-4.367,9.475-6.458
		c18.396-11.195,33.392-10.826,46.028-7.545c0,0,6.921-2.492,10.372-2.835C186.207,58.369,189.695,59.527,190.368,62.438z"/>
</g>
</svg>
