<?xml version="1.0" encoding="utf-8"?>
<!-- Generator: Adobe Illustrator 21.1.0, SVG Export Plug-In . SVG Version: 6.00 Build 0)  -->
<svg version="1.1" id="Layer_2" xmlns="http://www.w3.org/2000/svg" xmlns:xlink="http://www.w3.org/1999/xlink" x="0px" y="0px"
	 viewBox="0 0 200 200" style="enable-background:new 0 0 200 200;" xml:space="preserve">
<style type="text/css">
	.st0{fill:#125740;}
	.st1{fill:#FFFFFF;}
</style>
<g>
	<path class="st0" d="M104.1,119.5c-0.4,0-0.7,0-1.1,0c-0.1,0.1-0.2,0.2-0.3,0.3c0.1,1.9,0.1,3.8,0,5.7c0.1,0.1,0.2,0.2,0.3,0.3
		c0.4,0,0.7,0,1.1,0c0.1-0.1,0.2-0.2,0.3-0.3c0.2-1.9,0.2-3.8,0-5.7C104.3,119.7,104.2,119.6,104.1,119.5L104.1,119.5z"/>
	<path class="st0" d="M97.4,119.5c-0.4,0-0.7,0-1.1,0c-0.1,0.1-0.2,0.2-0.3,0.3c-0.2,1.9-0.2,3.8,0,5.7c0.1,0.1,0.2,0.2,0.3,0.3
		c0.4,0,0.7,0,1.1,0c0.1-0.1,0.2-0.2,0.3-0.3c-0.1-1.9-0.1-3.8,0-5.7C97.5,119.7,97.4,119.6,97.4,119.5L97.4,119.5z"/>
	<path class="st0" d="M100.7,119.5c-0.4,0-0.7,0-1.1,0c-0.1,0.1-0.2,0.2-0.3,0.3c0,1.9,0,3.8,0,5.7c0.1,0.1,0.2,0.2,0.3,0.3
		c0.4,0,0.7,0,1.1,0c0.1-0.1,0.2-0.2,0.3-0.3c0-1.9,0-3.8,0-5.7C100.9,119.7,100.8,119.6,100.7,119.5L100.7,119.5z"/>
	<path class="st0" d="M115.9,80c0.3,0,0.6-0.1,0.9-0.3c0.2-0.2,0.4-0.5,0.6-0.9l1.2-2.3c0.2-0.3,0.3-0.6,0.3-0.8
		c0-0.4-0.2-0.6-0.7-0.6c-0.3,0-0.6,0.1-0.8,0.3c-0.2,0.2-0.4,0.5-0.7,0.9l-1.2,2.3c-0.2,0.3-0.3,0.6-0.3,0.8
		C115.2,79.8,115.5,80,115.9,80L115.9,80z"/>
	<path class="st0" d="M167.7,98h-12.1c0.3-0.6,0.5-1.1,0.5-1.8c0-0.9-1-1.5-2.8-1.5c-2.2,0-3.3,0.9-3.3,1.9c0,0.9,1,1.2,6.2,2.4
		c5.2,1.2,7.1,2.4,7.1,5.2c0,2.3-1,4.7-3,6.7c-2.5,2.5-6.3,4.1-15.5,4.1c-11,0-14.2-1.8-14.2-5.6c0-1.1,0.2-2.3,0.9-3.5h12.3
		c-0.4,0.7-0.5,1.3-0.5,2c0,1,0.9,1.6,2.8,1.6c2.1,0,3.3-0.8,3.3-2.1c0-1.2-1.1-1.5-6.6-2.9c-5.2-1.3-6.7-2.3-6.7-5.1
		c0-1.9,1-4.2,2.9-6.1c2.7-2.7,6.5-4.1,15.5-4.1c10,0,13.7,1.6,13.7,5.4C168.4,95.8,168.2,96.8,167.7,98L167.7,98z M118,113.6
		c-1.2-0.9-2.6-1.7-4.2-2.6c-3-1.6-6-2.4-8.5-2.8l6.5-12.3h-8.3l3.3-6.3h31.4l-3.3,6.3h-7.5L118,113.6L118,113.6z M106.2,125.5
		c0.1,0.1,0.2,0.2,0.2,0.3c0.4,0,0.7,0,1.1,0c0.1-0.1,0.2-0.2,0.4-0.3c0.1-0.6,0.2-1.2,0.3-1.7c1.1,0,2.2,0,3.3-0.1
		c3.6-0.1,7.1-0.2,10.7-0.5l0.6,0.7v0v0c-0.8,2.7-4.2,6-9.5,8.8c-4.8,2.5-10.3,3.2-13,3.2c0,0,0,0-0.1,0c0,0,0,0,0,0c0,0,0,0,0,0
		l0,0c-2.7,0-8.2-0.7-13-3.2c-5.3-2.8-8.7-6-9.5-8.8l0.6-0.7c3.6,0.2,7.1,0.4,10.7,0.5c1.2,0,2.5,0.1,3.7,0.1c0,0.6,0.1,1.1,0.3,1.7
		c0.1,0.1,0.2,0.2,0.4,0.3c0.4,0,0.7,0,1.1,0c0.1-0.1,0.2-0.2,0.2-0.3c-0.3-1.9-0.3-3.7,0-5.6c-0.1-0.1-0.2-0.2-0.2-0.3
		c-0.4,0-0.7,0-1.1,0c-0.1,0.1-0.2,0.2-0.4,0.3c-0.1,0.6-0.2,1.1-0.3,1.7c-1.2,0-2.5,0-3.7,0.1c-3.6,0.1-7.1,0.2-10.7,0.5l-0.6-0.8
		c0-0.1,0-0.1,0-0.2c0.8-2.7,4.2-6,9.5-8.8c4.8-2.6,10.3-3.2,13-3.2c0,0,0,0,0,0c0,0,0,0,0,0c0,0,0,0,0.1,0c2.8,0,8.2,0.7,13,3.2
		c5.3,2.8,8.7,6.1,9.5,8.8c0,0.1,0,0.2,0,0.3l-0.6,0.8c-3.6-0.2-7.1-0.4-10.7-0.5c-1.1,0-2.2-0.1-3.3-0.1c0-0.6-0.1-1.2-0.3-1.7
		c-0.1-0.1-0.2-0.2-0.4-0.3c-0.4,0-0.7,0-1.1,0c-0.1,0.1-0.2,0.2-0.2,0.3C106.5,121.7,106.5,123.6,106.2,125.5L106.2,125.5z
		 M77.4,123.8C77.4,123.8,77.4,123.8,77.4,123.8L77.4,123.8C77.4,123.8,77.4,123.8,77.4,123.8L77.4,123.8z M75.1,89.7h29.2l-3.3,6.2
		h-15l-1.7,3h15.1l-3.2,6H81.2l-1.7,3.1H95l-0.1,0.1c-2.5,0.4-5.7,1.3-8.7,2.9c-1.9,1-3.6,2.1-5,3.2H62L75.1,89.7L75.1,89.7z
		 M45.7,114.9c-10,0-14.1-2.4-14.1-6.9c0-2.3,0.6-3.9,1.9-6.4l1.6-3H48l-3.2,6.1c-0.4,0.8-0.7,1.6-0.7,2.2c0,0.9,0.4,1.5,1.6,1.5
		c1.7,0,2.5-1.1,3.6-3.2l8.2-15.7h15.1l-6.9,13.1c-2,3.7-3.2,5.7-5.1,7.7C57.7,113.4,52.9,114.9,45.7,114.9L45.7,114.9z M50.3,73h5
		l0.9,3.9l2-3.9h4.4l-4.8,9H53l-0.9-4.2l-2.2,4.2h-4.4L50.3,73L50.3,73z M75.4,73l-1.2,2.3h-5.5L68,76.4h5.1L72,78.6h-5.1l-0.6,1.1
		h5.7l-1.2,2.3H59.8l4.8-9H75.4L75.4,73z M81.6,73l-1.1,4.2l3.1-4.2h5.1l-1.2,4.2l3.3-4.2h4.9l-8.1,9h-5.4l0.8-3.5l-3,3.5h-5.4
		l1.7-9H81.6L81.6,73z M99.4,73h5.5l-0.1,2.8l2.8-2.8h5.1l-7.2,6.2l-1.5,2.8h-5.7l1.6-3L99.4,73L99.4,73z M123,73.5
		c0.9,0.4,1.3,1.1,1.3,1.9c0,0.6-0.2,1.4-0.6,2.3c-0.6,1.3-1.3,2.3-1.9,2.9c-1.2,1.2-3.2,1.7-6.1,1.7c-2.1,0-3.6-0.2-4.5-0.7
		c-0.9-0.4-1.3-1.1-1.3-1.9c0-0.6,0.2-1.4,0.6-2.3c0.6-1.3,1.3-2.3,1.9-2.9c1.2-1.2,3.2-1.7,6.1-1.7C120.5,72.8,122,73,123,73.5
		L123,73.5z M135.8,73c1.1,0,1.9,0.2,2.3,0.6c0.3,0.3,0.5,0.8,0.5,1.3c0,0.9-0.3,1.6-0.9,2.3c-0.3,0.3-0.7,0.6-1,0.7
		c-0.3,0.1-0.8,0.3-1.4,0.4c0.9,0.3,1.3,0.7,1.3,1.2c0,0.3-0.1,0.7-0.3,1.1l-0.7,1.4H130l0.9-1.8c0.1-0.2,0.2-0.4,0.2-0.6
		c0-0.4-0.2-0.6-0.7-0.6h-0.8l-1.6,2.9h-5.4l4.8-9H135.8L135.8,73z M147.5,73l-2.2,4.1l4.5-4.1h5.1l-5,4.4l0.6,4.6h-5.4l-0.3-4
		l-2.1,4h-5.6l4.8-9H147.5L147.5,73z M189.5,95.3c-3.2-10.7-17.2-23.4-37.4-34.1c-17.9-9.4-39-12.7-51.7-12.7c-0.1,0-0.2,0-0.2,0
		h-0.2c-0.1,0-0.1,0-0.2,0C87,48.5,65.8,51.8,48,61.2C27.7,71.8,13.8,84.5,10.5,95.3c-0.3,1.5-0.4,3.1-0.4,4.7l0,0l0,0
		c0,1.6,0.1,3.2,0.4,4.7c3.2,10.7,17.2,23.4,37.4,34.1c18,9.5,39.2,12.8,52,12.7h0.2c0.1,0,0.1,0,0.2,0c12.7,0,33.9-3.3,51.7-12.7
		c20.2-10.6,34.2-23.3,37.4-34.1c0.3-1.5,0.4-3.1,0.4-4.7V100C189.9,98.4,189.7,96.8,189.5,95.3L189.5,95.3z"/>
	<g>
		<path class="st0" d="M132.6,76.7l0.2-0.4c0.1-0.2,0.1-0.4,0.1-0.5c0-0.3-0.2-0.4-0.6-0.4h-0.8l-1.2,2.1h1
			C131.9,77.4,132.3,77.2,132.6,76.7L132.6,76.7z"/>
		<path class="st1" d="M86.2,111.1c3.1-1.6,6.2-2.5,8.7-2.9L95,108H79.5l1.7-3.1h15.1l3.2-6H84.4l1.7-3h15l3.3-6.2H75.1L62,114.3
			h19.1C82.6,113.2,84.3,112.1,86.2,111.1L86.2,111.1z M77.4,123.8C77.4,123.8,77.4,123.8,77.4,123.8L77.4,123.8
			C77.4,123.8,77.4,123.8,77.4,123.8L77.4,123.8z M72.6,89.7H57.5l-8.2,15.7c-1.1,2.1-2,3.2-3.6,3.2c-1.1,0-1.6-0.6-1.6-1.5
			c0-0.6,0.3-1.5,0.7-2.2l3.2-6.1H35.1l-1.6,3c-1.4,2.5-1.9,4.1-1.9,6.4c0,4.5,4.1,6.9,14.1,6.9c7.2,0,12-1.5,14.9-4.4
			c2-2,3.2-4,5.1-7.7L72.6,89.7L72.6,89.7z M154.7,89.1c-9.1,0-12.8,1.4-15.5,4.1c-1.9,1.9-2.9,4.2-2.9,6.1c0,2.8,1.5,3.8,6.7,5.1
			c5.5,1.4,6.6,1.7,6.6,2.9c0,1.3-1.2,2.1-3.3,2.1c-1.9,0-2.8-0.6-2.8-1.6c0-0.7,0.2-1.3,0.5-2h-12.3c-0.6,1.3-0.9,2.4-0.9,3.5
			c0,3.8,3.2,5.6,14.2,5.6c9.3,0,13-1.6,15.5-4.1c2-2,3-4.3,3-6.7c0-2.8-1.9-4-7.1-5.2c-5.2-1.2-6.2-1.6-6.2-2.4
			c0-1,1.1-1.9,3.3-1.9c1.8,0,2.8,0.6,2.8,1.5c0,0.7-0.2,1.2-0.5,1.8h12.1c0.5-1.2,0.7-2.2,0.7-3.5
			C168.4,90.7,164.8,89.1,154.7,89.1L154.7,89.1z M104.4,125.5c-0.1,0.1-0.2,0.2-0.3,0.3c-0.4,0-0.7,0-1.1,0
			c-0.1-0.1-0.2-0.2-0.3-0.3c0.1-1.9,0.1-3.8,0-5.7c0.1-0.1,0.2-0.2,0.3-0.3c0.4,0,0.7,0,1.1,0c0.1,0.1,0.2,0.2,0.3,0.3
			C104.6,121.7,104.6,123.6,104.4,125.5L104.4,125.5z M101,125.5c-0.1,0.1-0.2,0.2-0.3,0.3c-0.4,0-0.7,0-1.1,0
			c-0.1-0.1-0.2-0.2-0.3-0.3c0-1.9,0-3.8,0-5.7c0.1-0.1,0.2-0.2,0.3-0.3c0.4,0,0.7,0,1.1,0c0.1,0.1,0.2,0.2,0.3,0.3
			C101.1,121.7,101.1,123.6,101,125.5L101,125.5z M97.6,125.5c-0.1,0.1-0.2,0.2-0.3,0.3c-0.4,0-0.7,0-1.1,0
			c-0.1-0.1-0.2-0.2-0.3-0.3c-0.2-1.9-0.2-3.8,0-5.7c0.1-0.1,0.2-0.2,0.3-0.3c0.4,0,0.7,0,1.1,0c0.1,0.1,0.2,0.2,0.3,0.3
			C97.5,121.7,97.5,123.6,97.6,125.5L97.6,125.5z M107.5,119.6c0.1,0.1,0.2,0.2,0.4,0.3c0.1,0.6,0.2,1.2,0.3,1.7
			c1.1,0,2.2,0,3.3,0.1c3.6,0.1,7.1,0.2,10.7,0.5l0.6-0.8c0-0.1,0-0.2,0-0.3c-0.8-2.7-4.2-6-9.5-8.8c-4.8-2.5-10.3-3.2-13-3.2
			c0,0,0,0-0.1,0c0,0,0,0,0,0c0,0,0,0,0,0c-2.7,0-8.2,0.7-13,3.2c-5.3,2.8-8.7,6.1-9.5,8.8c0,0.1,0,0.1,0,0.2l0.6,0.8
			c3.6-0.2,7.1-0.4,10.7-0.5c1.2,0,2.5-0.1,3.7-0.1c0-0.6,0.1-1.1,0.3-1.7c0.1-0.1,0.2-0.2,0.4-0.3c0.4,0,0.7,0,1.1,0
			c0.1,0.1,0.2,0.2,0.2,0.3c-0.3,1.9-0.3,3.7,0,5.6c-0.1,0.1-0.2,0.2-0.2,0.3c-0.4,0-0.7,0-1.1,0c-0.1-0.1-0.2-0.2-0.4-0.3
			c-0.1-0.6-0.2-1.1-0.3-1.7c-1.2,0-2.5,0-3.7-0.1c-3.6-0.1-7.1-0.2-10.7-0.5l-0.6,0.7c0.8,2.7,4.2,6,9.5,8.8
			c4.8,2.6,10.3,3.2,13,3.2l0,0c0,0,0,0,0,0c0,0,0,0,0,0c0,0,0,0,0.1,0c2.8,0,8.2-0.7,13-3.2c5.3-2.8,8.7-6.1,9.5-8.8v0v0l-0.6-0.7
			c-3.6,0.2-7.1,0.4-10.7,0.5c-1.1,0-2.2,0.1-3.3,0.1c0,0.6-0.1,1.2-0.3,1.7c-0.1,0.1-0.2,0.2-0.4,0.3c-0.4,0-0.7,0-1.1,0
			c-0.1-0.1-0.2-0.2-0.2-0.3c0.3-1.9,0.3-3.7,0-5.6c0.1-0.1,0.2-0.2,0.2-0.3C106.7,119.6,107.1,119.6,107.5,119.6L107.5,119.6z
			 M189.9,100c0,1.6-0.1,3.2-0.4,4.7c-3.2,10.7-17.2,23.4-37.4,34.1c-17.9,9.4-39,12.7-51.7,12.7c-0.1,0-0.1,0-0.2,0h-0.2
			c-12.7,0-34-3.3-52-12.7c-20.2-10.6-34.2-23.3-37.4-34.1c-0.3-1.5-0.4-3.1-0.4-4.7l0,0l0,0c0-1.6,0.1-3.2,0.4-4.7
			C13.8,84.5,27.7,71.8,48,61.2c17.9-9.4,39-12.7,51.7-12.7c0.1,0,0.1,0,0.2,0h0.2c0.1,0,0.2,0,0.2,0c12.7,0,33.8,3.3,51.7,12.7
			c20.2,10.6,34.2,23.3,37.4,34.1C189.7,96.8,189.9,98.4,189.9,100L189.9,100L189.9,100z M194.5,94.2l-0.1-0.3
			c-3.6-12.2-18.2-25.8-40-37.3c-18.7-9.8-40.8-13.3-54.1-13.3c-0.1,0-0.2,0-0.2,0h-0.2c-0.1,0-0.1,0-0.2,0
			c-13.3,0-35.4,3.5-54.1,13.3C23.7,68.1,9.2,81.7,5.6,93.9l-0.1,0.3C5.2,96.1,5,98,5,100c0,2,0.2,3.9,0.5,5.8l0.1,0.3
			c3.6,12.2,18.2,25.8,40,37.3c18.7,9.8,40.8,13.3,54.1,13.3c0.1,0,0.2,0,0.2,0h0.2c0.1,0,0.1,0,0.2,0c13.3,0,35.4-3.5,54.1-13.3
			c21.8-11.5,36.4-25.1,40-37.3l0.1-0.3c0.4-1.9,0.5-3.9,0.5-5.8C195,98,194.8,96.1,194.5,94.2L194.5,94.2z M52.1,77.9l0.9,4.2h4.7
			l4.8-9h-4.4l-2,3.9L55.3,73h-5l-4.8,9h4.4L52.1,77.9L52.1,77.9z M138.3,89.7h-31.4l-3.3,6.3h8.3l-6.5,12.3
			c2.5,0.5,5.5,1.3,8.5,2.8c1.5,0.8,2.9,1.7,4.2,2.6l9.4-17.6h7.5L138.3,89.7L138.3,89.7z M142.7,82.1l2.1-4l0.3,4h5.4l-0.6-4.6
			l5-4.4h-5.1l-4.5,4.1l2.2-4.1H142l-4.8,9H142.7L142.7,82.1z M70.7,82.1l1.2-2.3h-5.7l0.6-1.1H72l1.2-2.2H68l0.6-1.1h5.5l1.2-2.3
			H64.6l-4.8,9H70.7L70.7,82.1z M103.9,82.1l1.5-2.8l7.2-6.2h-5.1l-2.8,2.8l0.1-2.8h-5.5l0.4,6.1l-1.6,3H103.9L103.9,82.1z
			 M115.5,78.5l1.2-2.3c0.2-0.4,0.4-0.7,0.7-0.9c0.2-0.2,0.5-0.3,0.8-0.3c0.5,0,0.7,0.2,0.7,0.6c0,0.2-0.1,0.5-0.3,0.8l-1.2,2.3
			c-0.2,0.4-0.4,0.7-0.6,0.9c-0.2,0.2-0.5,0.3-0.9,0.3c-0.5,0-0.7-0.2-0.7-0.6C115.2,79.2,115.3,78.9,115.5,78.5L115.5,78.5z
			 M110.5,77.4c-0.4,0.9-0.6,1.6-0.6,2.3c0,0.9,0.4,1.5,1.3,1.9c0.9,0.4,2.4,0.7,4.5,0.7c2.9,0,4.9-0.6,6.1-1.7
			c0.6-0.6,1.3-1.6,1.9-2.9c0.4-0.9,0.6-1.6,0.6-2.3c0-0.9-0.4-1.5-1.3-1.9c-0.9-0.4-2.4-0.7-4.5-0.7c-2.9,0-4.9,0.6-6.1,1.7
			C111.8,75.2,111.1,76.1,110.5,77.4L110.5,77.4z M80.1,82.1l3-3.5l-0.8,3.5h5.4l8.1-9h-4.9l-3.3,4.2l1.2-4.2h-5.1l-3.1,4.2l1.1-4.2
			h-5.2l-1.7,9H80.1L80.1,82.1z M131.6,75.3h0.8c0.4,0,0.6,0.1,0.6,0.4c0,0.1,0,0.3-0.1,0.5l-0.2,0.4c-0.3,0.5-0.6,0.8-1.1,0.8h-1
			L131.6,75.3L131.6,75.3z M128,82.1l1.6-2.9h0.8c0.5,0,0.7,0.2,0.7,0.6c0,0.2-0.1,0.4-0.2,0.6l-0.9,1.8h5.5l0.7-1.4
			c0.2-0.4,0.3-0.8,0.3-1.1c0-0.6-0.4-1-1.3-1.2c0.6-0.1,1-0.2,1.4-0.4c0.4-0.2,0.7-0.4,1-0.7c0.6-0.6,0.9-1.4,0.9-2.3
			c0-0.6-0.2-1-0.5-1.3c-0.4-0.4-1.2-0.6-2.3-0.6h-8.4l-4.8,9H128L128,82.1z"/>
	</g>
</g>
</svg>
